{
	"asset":{
		"generator":"Khronos glTF Blender I/O v4.5.47",
		"version":"2.0"
	},
	"scene":0,
	"scenes":[
		{
			"name":"Scene",
			"nodes":[
				0,
				1,
				2,
				3,
				4,
				5
			]
		}
	],
	"nodes":[
		{
			"mesh":0,
			"name":"Cube",
			"scale":[
				1,
				0.75,
				2.5
			],
			"translation":[
				0,
				1,
				0
			]
		},
		{
			"mesh":1,
			"name":"Cylinder",
			"rotation":[
				0,
				0,
				-0.7071068286895752,
				0.7071068286895752
			],
			"scale":[
				1.64115309715271,
				1.64115309715271,
				1.64115309715271
			],
			"translation":[
				-0.7592704892158508,
				0.4672435224056244,
				-1.7302038669586182
			]
		},
		{
			"mesh":2,
			"name":"Cylinder.001",
			"rotation":[
				0,
				0,
				-0.7071068286895752,
				0.7071067690849304
			],
			"scale":[
				1.7339588403701782,
				1.7339588403701782,
				1.7339588403701782
			],
			"translation":[
				-0.7592704892158508,
				0.4672435224056244,
				1.5373475551605225
			]
		},
		{
			"mesh":3,
			"name":"Cylinder.002",
			"rotation":[
				0,
				0,
				-0.7071068286895752,
				0.7071068286895752
			],
			"scale":[
				1.64115309715271,
				1.64115309715271,
				1.64115309715271
			],
			"translation":[
				0.7327969670295715,
				0.4672435224056244,
				-1.7302038669586182
			]
		},
		{
			"mesh":4,
			"name":"Cylinder.003",
			"rotation":[
				0,
				0,
				-0.7071068286895752,
				0.7071067690849304
			],
			"scale":[
				1.7339588403701782,
				1.7339588403701782,
				1.7339588403701782
			],
			"translation":[
				0.7327969670295715,
				0.4672435224056244,
				1.5373475551605225
			]
		},
		{
			"mesh":5,
			"name":"Cube.001",
			"scale":[
				1,
				0.75,
				2.5
			],
			"translation":[
				0,
				1,
				0
			]
		}
	],
	"materials":[
		{
			"doubleSided":true,
			"name":"tires"
		},
		{
			"doubleSided":true,
			"name":"Material.002"
		}
	],
	"meshes":[
		{
			"name":"Cube.002",
			"primitives":[
				{
					"attributes":{
						"POSITION":0,
						"NORMAL":1,
						"TEXCOORD_0":2
					},
					"indices":3
				}
			]
		},
		{
			"name":"Cylinder",
			"primitives":[
				{
					"attributes":{
						"POSITION":4,
						"NORMAL":5,
						"TEXCOORD_0":6
					},
					"indices":7,
					"material":0
				}
			]
		},
		{
			"name":"Cylinder.001",
			"primitives":[
				{
					"attributes":{
						"POSITION":8,
						"NORMAL":9,
						"TEXCOORD_0":10
					},
					"indices":7,
					"material":0
				}
			]
		},
		{
			"name":"Cylinder.002",
			"primitives":[
				{
					"attributes":{
						"POSITION":11,
						"NORMAL":12,
						"TEXCOORD_0":13
					},
					"indices":7,
					"material":0
				}
			]
		},
		{
			"name":"Cylinder.003",
			"primitives":[
				{
					"attributes":{
						"POSITION":14,
						"NORMAL":15,
						"TEXCOORD_0":16
					},
					"indices":7,
					"material":0
				}
			]
		},
		{
			"name":"Cube.001",
			"primitives":[
				{
					"attributes":{
						"POSITION":17,
						"NORMAL":18,
						"TEXCOORD_0":19
					},
					"indices":20,
					"material":1
				}
			]
		}
	],
	"accessors":[
		{
			"bufferView":0,
			"componentType":5126,
			"count":280,
			"max":[
				1.094727635383606,
				1,
				1.227748990058899
			],
			"min":[
				-1.094727635383606,
				-1.0373077392578125,
				-1
			],
			"type":"VEC3"
		},
		{
			"bufferView":1,
			"componentType":5126,
			"count":280,
			"type":"VEC3"
		},
		{
			"bufferView":2,
			"componentType":5126,
			"count":280,
			"type":"VEC2"
		},
		{
			"bufferView":3,
			"componentType":5123,
			"count":468,
			"type":"SCALAR"
		},
		{
			"bufferView":4,
			"componentType":5126,
			"count":48,
			"max":[
				0.25,
				0.125,
				0.25
			],
			"min":[
				-0.25,
				-0.125,
				-0.25
			],
			"type":"VEC3"
		},
		{
			"bufferView":5,
			"componentType":5126,
			"count":48,
			"type":"VEC3"
		},
		{
			"bufferView":6,
			"componentType":5126,
			"count":48,
			"type":"VEC2"
		},
		{
			"bufferView":7,
			"componentType":5123,
			"count":84,
			"type":"SCALAR"
		},
		{
			"bufferView":8,
			"componentType":5126,
			"count":48,
			"max":[
				0.25,
				0.125,
				0.25
			],
			"min":[
				-0.25,
				-0.125,
				-0.25
			],
			"type":"VEC3"
		},
		{
			"bufferView":9,
			"componentType":5126,
			"count":48,
			"type":"VEC3"
		},
		{
			"bufferView":10,
			"componentType":5126,
			"count":48,
			"type":"VEC2"
		},
		{
			"bufferView":11,
			"componentType":5126,
			"count":48,
			"max":[
				0.25,
				0.125,
				0.25
			],
			"min":[
				-0.25,
				-0.125,
				-0.25
			],
			"type":"VEC3"
		},
		{
			"bufferView":12,
			"componentType":5126,
			"count":48,
			"type":"VEC3"
		},
		{
			"bufferView":13,
			"componentType":5126,
			"count":48,
			"type":"VEC2"
		},
		{
			"bufferView":14,
			"componentType":5126,
			"count":48,
			"max":[
				0.25,
				0.125,
				0.25
			],
			"min":[
				-0.25,
				-0.125,
				-0.25
			],
			"type":"VEC3"
		},
		{
			"bufferView":15,
			"componentType":5126,
			"count":48,
			"type":"VEC3"
		},
		{
			"bufferView":16,
			"componentType":5126,
			"count":48,
			"type":"VEC2"
		},
		{
			"bufferView":17,
			"componentType":5126,
			"count":128,
			"max":[
				1.0769354104995728,
				-0.41508543491363525,
				0.31106069684028625
			],
			"min":[
				-1.0769354104995728,
				-0.890280544757843,
				0.2935626208782196
			],
			"type":"VEC3"
		},
		{
			"bufferView":18,
			"componentType":5126,
			"count":128,
			"type":"VEC3"
		},
		{
			"bufferView":19,
			"componentType":5126,
			"count":128,
			"type":"VEC2"
		},
		{
			"bufferView":20,
			"componentType":5123,
			"count":204,
			"type":"SCALAR"
		}
	],
	"bufferViews":[
		{
			"buffer":0,
			"byteLength":3360,
			"byteOffset":0,
			"target":34962
		},
		{
			"buffer":0,
			"byteLength":3360,
			"byteOffset":3360,
			"target":34962
		},
		{
			"buffer":0,
			"byteLength":2240,
			"byteOffset":6720,
			"target":34962
		},
		{
			"buffer":0,
			"byteLength":936,
			"byteOffset":8960,
			"target":34963
		},
		{
			"buffer":0,
			"byteLength":576,
			"byteOffset":9896,
			"target":34962
		},
		{
			"buffer":0,
			"byteLength":576,
			"byteOffset":10472,
			"target":34962
		},
		{
			"buffer":0,
			"byteLength":384,
			"byteOffset":11048,
			"target":34962
		},
		{
			"buffer":0,
			"byteLength":168,
			"byteOffset":11432,
			"target":34963
		},
		{
			"buffer":0,
			"byteLength":576,
			"byteOffset":11600,
			"target":34962
		},
		{
			"buffer":0,
			"byteLength":576,
			"byteOffset":12176,
			"target":34962
		},
		{
			"buffer":0,
			"byteLength":384,
			"byteOffset":12752,
			"target":34962
		},
		{
			"buffer":0,
			"byteLength":576,
			"byteOffset":13136,
			"target":34962
		},
		{
			"buffer":0,
			"byteLength":576,
			"byteOffset":13712,
			"target":34962
		},
		{
			"buffer":0,
			"byteLength":384,
			"byteOffset":14288,
			"target":34962
		},
		{
			"buffer":0,
			"byteLength":576,
			"byteOffset":14672,
			"target":34962
		},
		{
			"buffer":0,
			"byteLength":576,
			"byteOffset":15248,
			"target":34962
		},
		{
			"buffer":0,
			"byteLength":384,
			"byteOffset":15824,
			"target":34962
		},
		{
			"buffer":0,
			"byteLength":1536,
			"byteOffset":16208,
			"target":34962
		},
		{
			"buffer":0,
			"byteLength":1536,
			"byteOffset":17744,
			"target":34962
		},
		{
			"buffer":0,
			"byteLength":1024,
			"byteOffset":19280,
			"target":34962
		},
		{
			"buffer":0,
			"byteLength":408,
			"byteOffset":20304,
			"target":34963
		}
	],
	"buffers":[
		{
			"byteLength":20712,
			"uri":"Untitled.bin"
		}
	]
}
